<?xml version="1.0" ?><!DOCTYPE svg  PUBLIC '-//W3C//DTD SVG 1.1//EN'  'http://www.w3.org/Graphics/SVG/1.1/DTD/svg11.dtd'><svg enable-background="new 0 0 91 91" height="91px" id="Layer_1" version="1.1" viewBox="0 0 91 91" width="91px" xml:space="preserve" xmlns="http://www.w3.org/2000/svg" xmlns:xlink="http://www.w3.org/1999/xlink"><g><g><g><g><path d="M46.365,47.058c-4.823,0-8.747,3.924-8.747,8.746c0,4.824,3.924,8.75,8.747,8.75c4.824,0,8.75-3.926,8.75-8.75      C55.115,50.981,51.189,47.058,46.365,47.058z M46.365,59.528c-2.053,0-3.721-1.672-3.721-3.725c0-2.051,1.668-3.721,3.721-3.721      c2.053,0,3.725,1.67,3.725,3.721C50.09,57.856,48.418,59.528,46.365,59.528z"/><path d="M67.301,49.632l-5.129-8.881c-0.332-0.578-0.883-0.998-1.525-1.17c-0.645-0.174-1.33-0.082-1.908,0.252l-3.543,2.049      c-0.387-0.246-0.783-0.475-1.188-0.686v-4.098c0-1.389-1.125-2.514-2.514-2.514h-10.26c-1.387,0-2.512,1.125-2.512,2.514v4.098      c-0.348,0.184-0.691,0.379-1.027,0.588l-3.525-2.092c-0.574-0.34-1.258-0.439-1.904-0.273s-1.199,0.58-1.539,1.154l-5.225,8.823      c-0.707,1.191-0.313,2.732,0.879,3.439l3.52,2.09c-0.02,0.301-0.027,0.592-0.027,0.879c0,0.227,0.006,0.457,0.018,0.691      l-3.549,2.049c-0.576,0.334-0.998,0.883-1.17,1.527c-0.172,0.643-0.082,1.33,0.252,1.906l5.129,8.875      c0.695,1.203,2.232,1.613,3.432,0.92l3.551-2.049c0.385,0.244,0.781,0.473,1.188,0.686v4.1c0,1.387,1.125,2.512,2.512,2.512      h10.26c1.389,0,2.514-1.125,2.514-2.512v-4.1c0.35-0.184,0.689-0.379,1.023-0.584l3.529,2.088      c1.193,0.703,2.734,0.311,3.441-0.883l5.227-8.824c0.709-1.193,0.314-2.732-0.879-3.441l-3.516-2.084      c0.02-0.301,0.029-0.592,0.029-0.877c0-0.229-0.006-0.459-0.02-0.695l3.539-2.045C67.584,52.368,67.994,50.833,67.301,49.632z       M57.693,54.12c0.098,0.656,0.145,1.191,0.145,1.684c0,0.543-0.051,1.121-0.162,1.822c-0.158,1.016,0.316,2.025,1.201,2.551      l2.75,1.629l-2.668,4.504l-2.754-1.629c-0.889-0.525-2.008-0.453-2.822,0.18c-0.846,0.658-1.793,1.199-2.818,1.607      c-0.955,0.381-1.582,1.305-1.582,2.334v3.193h-5.235v-3.193c0-1.029-0.627-1.955-1.584-2.334      c-1.064-0.426-2.049-0.994-2.922-1.691c-0.809-0.643-1.93-0.729-2.822-0.211l-2.771,1.6l-2.617-4.527l2.775-1.602      c0.891-0.516,1.377-1.521,1.229-2.541c-0.092-0.631-0.137-1.184-0.137-1.691c0-0.539,0.049-1.123,0.158-1.838      c0.152-1.012-0.322-2.014-1.201-2.535l-2.752-1.635l2.666-4.497l2.748,1.63c0.889,0.525,2.006,0.459,2.822-0.176      c0.873-0.675,1.822-1.218,2.816-1.61c0.961-0.379,1.592-1.307,1.592-2.34V39.61h5.235v3.193c0,1.031,0.629,1.961,1.59,2.34      c1.047,0.414,2.033,0.982,2.928,1.69c0.809,0.637,1.924,0.719,2.816,0.203l2.762-1.595l2.615,4.528l-2.773,1.604      C58.027,52.091,57.541,53.101,57.693,54.12z"/><path d="M26.833,20.706h0.174c1.389,0,2.514-1.125,2.514-2.514c0-1.387-1.125-2.512-2.514-2.512h-0.174      c-1.389,0-2.514,1.125-2.514,2.512C24.32,19.581,25.445,20.706,26.833,20.706z"/><path d="M15.447,20.706h0.176c1.387,0,2.512-1.125,2.512-2.514c0-1.387-1.125-2.512-2.512-2.512h-0.176      c-1.387,0-2.512,1.125-2.512,2.512C12.935,19.581,14.06,20.706,15.447,20.706z"/><path d="M38.22,20.706h0.174c1.389,0,2.514-1.125,2.514-2.514c0-1.387-1.125-2.512-2.514-2.512H38.22      c-1.389,0-2.514,1.125-2.514,2.512C35.707,19.581,36.832,20.706,38.22,20.706z"/><path d="M0.283,83.366c0,1.389,1.125,2.514,2.512,2.514h77.454c5.766,0,10.455-4.691,10.455-10.457V28.241v-0.004V8.147      c0-1.387-1.125-2.512-2.512-2.512H2.792c-1.387,0-2.512,1.125-2.512,2.512v20.094c0,0.008,0.002,0.014,0.002,0.02V83.366z       M80.248,80.854H5.308v-50.1h80.37v44.668C85.678,78.417,83.242,80.854,80.248,80.854z M85.678,10.661v15.064H5.306V10.661      H85.678z"/></g></g></g></g></svg>