<?xml version="1.0" encoding="UTF-8" standalone="no"?>
<!-- Created with Inkscape (http://www.inkscape.org/) -->

<svg
   xmlns:dc="http://purl.org/dc/elements/1.1/"
   xmlns:cc="http://creativecommons.org/ns#"
   xmlns:rdf="http://www.w3.org/1999/02/22-rdf-syntax-ns#"
   xmlns:svg="http://www.w3.org/2000/svg"
   xmlns="http://www.w3.org/2000/svg"
   xmlns:sodipodi="http://sodipodi.sourceforge.net/DTD/sodipodi-0.dtd"
   xmlns:inkscape="http://www.inkscape.org/namespaces/inkscape"
   width="26.99622mm"
   height="37.363968mm"
   viewBox="0 0 95.655896 132.39201"
   id="svg6241"
   version="1.1"
   inkscape:version="0.91 r13725"
   sodipodi:docname="nerino_spada_a.svg">
  <defs
     id="defs6243" />
  <sodipodi:namedview
     id="base"
     pagecolor="#ffffff"
     bordercolor="#666666"
     borderopacity="1.0"
     inkscape:pageopacity="0.0"
     inkscape:pageshadow="2"
     inkscape:zoom="0.35"
     inkscape:cx="-224.31491"
     inkscape:cy="406.19601"
     inkscape:document-units="px"
     inkscape:current-layer="layer1"
     showgrid="false"
     fit-margin-top="0"
     fit-margin-left="0"
     fit-margin-right="0"
     fit-margin-bottom="0"
     inkscape:window-width="1366"
     inkscape:window-height="705"
     inkscape:window-x="-8"
     inkscape:window-y="-8"
     inkscape:window-maximized="1" />
  <metadata
     id="metadata6246">
    <rdf:RDF>
      <cc:Work
         rdf:about="">
        <dc:format>image/svg+xml</dc:format>
        <dc:type
           rdf:resource="http://purl.org/dc/dcmitype/StillImage" />
        <dc:title></dc:title>
      </cc:Work>
    </rdf:RDF>
  </metadata>
  <g
     inkscape:label="Livello 1"
     inkscape:groupmode="layer"
     id="layer1"
     transform="translate(-97.886335,-806.1662)">
    <path
       style="opacity:1;fill:#313131;fill-opacity:1;fill-rule:nonzero;stroke:#000000;stroke-width:0.57171184;stroke-linecap:butt;stroke-miterlimit:4;stroke-dasharray:none;stroke-dashoffset:0;stroke-opacity:1"
       d="m 130.35604,873.35117 c -10.35064,0.0145 -21.17003,0.81652 -23.38476,4.50976 -3.54357,5.90919 19.77929,14.46158 19.77929,23.37305 0,17.75751 2.06241,36.28018 19.58203,37.01563 l 0,0.0137 c 0.0321,-0.001 0.0617,-0.005 0.0937,-0.006 0.0327,0.001 0.0629,0.005 0.0957,0.006 l 0,-0.0137 c 17.51962,-0.73545 19.58203,-19.25812 19.58203,-37.01563 0,-8.91147 23.32287,-17.46386 19.7793,-23.37305 -3.53534,-5.89546 -28.97335,-4.42446 -39.45704,-4.14257 -3.91616,-0.10533 -9.8992,-0.37583 -16.07031,-0.36719 z"
       id="path7074"
       inkscape:connector-curvature="0" />
    <circle
       r="32.230228"
       cy="847.28192"
       cx="146.52194"
       id="circle7078"
       style="opacity:1;fill:#ffe7ca;fill-opacity:1;fill-rule:nonzero;stroke:#000000;stroke-width:0.65381753;stroke-linecap:butt;stroke-miterlimit:4;stroke-dasharray:none;stroke-dashoffset:0;stroke-opacity:1" />
    <g
       id="g7084"
       transform="matrix(0.52305405,0,0,0.52305405,-62.222938,619.39818)">
      <path
         style="fill:none;fill-rule:evenodd;stroke:#000000;stroke-width:2;stroke-linecap:butt;stroke-linejoin:miter;stroke-miterlimit:4;stroke-dasharray:none;stroke-opacity:1"
         d="m 348.99175,423.77176 30.30458,9.09138"
         id="path7086"
         inkscape:connector-curvature="0" />
      <circle
         style="opacity:1;fill:#000000;fill-opacity:1;fill-rule:nonzero;stroke:#000000;stroke-width:1.70000005;stroke-linecap:butt;stroke-miterlimit:4;stroke-dasharray:none;stroke-dashoffset:0;stroke-opacity:1"
         id="circle7088"
         cx="372.17859"
         cy="439.32648"
         r="7.1642857" />
    </g>
    <g
       id="g7090"
       transform="matrix(-0.52305405,0,0,0.52305405,359.82796,619.39818)">
      <path
         inkscape:connector-curvature="0"
         id="path7092"
         d="m 356.99175,423.77176 30.30458,9.09138"
         style="fill:none;fill-rule:evenodd;stroke:#000000;stroke-width:2;stroke-linecap:butt;stroke-linejoin:miter;stroke-miterlimit:4;stroke-dasharray:none;stroke-opacity:1" />
      <circle
         r="7.1642857"
         cy="439.32648"
         cx="380.17859"
         id="circle7094"
         style="opacity:1;fill:#000000;fill-opacity:1;fill-rule:nonzero;stroke:#000000;stroke-width:1.70000005;stroke-linecap:butt;stroke-miterlimit:4;stroke-dasharray:none;stroke-dashoffset:0;stroke-opacity:1" />
    </g>
    <path
       sodipodi:nodetypes="cc"
       inkscape:connector-curvature="0"
       id="path7096"
       d="m 135.06052,861.98786 c 8.34351,-0.0679 12.60888,-0.60372 19.77089,4.48332"
       style="fill:none;fill-rule:evenodd;stroke:#000000;stroke-width:1.04610813;stroke-linecap:butt;stroke-linejoin:miter;stroke-miterlimit:4;stroke-dasharray:none;stroke-opacity:1" />
    <g
       id="g7626"
       transform="matrix(0.96118427,-0.27590724,0.27590724,0.96118427,-455.17221,907.11741)">
      <g
         transform="translate(515,-26.428571)"
         id="g7608">
        <rect
           y="172.06549"
           x="36.950176"
           height="19.836029"
           width="4.398778"
           id="rect7610"
           style="opacity:1;fill:#90491f;fill-opacity:1;fill-rule:nonzero;stroke:#000000;stroke-width:0.5;stroke-linecap:butt;stroke-miterlimit:4;stroke-dasharray:none;stroke-dashoffset:0;stroke-opacity:1" />
        <g
           style="stroke-width:3.76029396;stroke-miterlimit:4;stroke-dasharray:none"
           id="g7612"
           transform="matrix(0.12935317,0,0,0.13668452,-15.207666,100.27438)">
          <path
             style="opacity:1;fill:#f7f7f7;fill-opacity:1;fill-rule:nonzero;stroke:#000000;stroke-width:3.76029396;stroke-linecap:butt;stroke-miterlimit:4;stroke-dasharray:none;stroke-dashoffset:0;stroke-opacity:1"
             d="m 384.86813,129.08278 35.35534,-84 35.35534,84 0,359.61432 -70.71068,0 z"
             id="path7614"
             inkscape:connector-curvature="0"
             sodipodi:nodetypes="cccccc" />
          <path
             sodipodi:nodetypes="cccccc"
             inkscape:connector-curvature="0"
             id="path7616"
             d="m 384.86813,129.08278 35.35534,42 35.35534,-42 0,359.61432 -70.71068,0 z"
             style="opacity:1;fill:#878787;fill-opacity:1;fill-rule:nonzero;stroke:#000000;stroke-width:3.76029396;stroke-linecap:butt;stroke-miterlimit:4;stroke-dasharray:none;stroke-dashoffset:0;stroke-opacity:1" />
          <path
             style="opacity:1;fill:#dddddd;fill-opacity:1;fill-rule:nonzero;stroke:#000000;stroke-width:3.76029396;stroke-linecap:butt;stroke-miterlimit:4;stroke-dasharray:none;stroke-dashoffset:0;stroke-opacity:1"
             d="m 420.22347,171.08278 35.35534,-42 0,359.61432 -35.35534,0 z"
             id="path7618"
             inkscape:connector-curvature="0"
             sodipodi:nodetypes="ccccc" />
        </g>
        <path
           sodipodi:nodetypes="ccaccac"
           inkscape:connector-curvature="0"
           id="path7620"
           d="m 26.866927,166.24327 24.565288,0 c 0,0 1.810947,2.03822 1.810947,3.31374 0,1.27552 -1.810947,3.31373 -1.810947,3.31373 l -24.565288,0 c 0,0 -1.810947,-2.03821 -1.810947,-3.31373 0,-1.27552 1.810947,-3.31374 1.810947,-3.31374 z"
           style="opacity:1;fill:#90491f;fill-opacity:1;fill-rule:nonzero;stroke:#000000;stroke-width:0.5;stroke-linecap:butt;stroke-miterlimit:4;stroke-dasharray:none;stroke-dashoffset:0;stroke-opacity:1" />
        <ellipse
           ry="3.514745"
           rx="3.3262241"
           cy="192.37114"
           cx="39.12067"
           id="ellipse7622"
           style="opacity:1;fill:#0d00b2;fill-opacity:1;fill-rule:nonzero;stroke:#000000;stroke-width:0.5;stroke-linecap:butt;stroke-miterlimit:4;stroke-dasharray:none;stroke-dashoffset:0;stroke-opacity:1" />
        <path
           sodipodi:nodetypes="caccccccc"
           inkscape:connector-curvature="0"
           id="path7624"
           d="m 41.890813,192.18314 c 0.04191,0.22607 0.07681,0.65882 -0.130576,0.64423 -0.154113,-0.0108 -0.0072,-0.32999 -0.0361,-0.48813 0.0096,-0.35597 -0.02096,-0.72507 -0.183811,-1.04382 -0.244672,-0.59098 -0.661435,-1.11197 -1.208238,-1.41008 -0.281518,-0.18499 -0.605538,-0.30689 -0.93998,-0.30157 -0.08222,0.005 -0.272043,-0.0337 -0.08269,-0.0349 1.059041,-0.0529 2.109532,0.69555 2.441895,1.76315 0.09273,0.27921 0.141308,0.5751 0.139507,0.87114 z"
           style="opacity:1;fill:#ffffff;fill-opacity:1;fill-rule:nonzero;stroke:#ffffff;stroke-width:0.5;stroke-linecap:butt;stroke-miterlimit:4;stroke-dasharray:none;stroke-dashoffset:0;stroke-opacity:1" />
      </g>
    </g>
    <circle
       r="4.3899183"
       cy="903.33411"
       cx="121.41232"
       id="circle7110"
       style="opacity:1;fill:#ffffff;fill-opacity:1;fill-rule:nonzero;stroke:#000000;stroke-width:0.52305406;stroke-linecap:butt;stroke-miterlimit:4;stroke-dasharray:none;stroke-dashoffset:0;stroke-opacity:1" />
    <path
       style="opacity:1;fill:#000000;fill-opacity:1;fill-rule:nonzero;stroke:#000000;stroke-width:0.65381759;stroke-linecap:butt;stroke-miterlimit:4;stroke-dasharray:none;stroke-dashoffset:0;stroke-opacity:1"
       d="m 111.27075,841.25919 c 0,-19.20077 15.89556,-34.76607 35.50372,-34.76608 19.60817,0 35.50373,15.5653 35.50373,34.76608"
       id="circle7127"
       inkscape:connector-curvature="0"
       sodipodi:nodetypes="csc" />
    <g
       id="g7701"
       transform="translate(62.675799,311.53281)">
      <circle
         style="opacity:1;fill:#ffffff;fill-opacity:1;fill-rule:nonzero;stroke:#000000;stroke-width:0.52305406;stroke-linecap:butt;stroke-miterlimit:4;stroke-dasharray:none;stroke-dashoffset:0;stroke-opacity:1"
         id="circle7108"
         cx="98.246346"
         cy="583.09326"
         r="4.3899183" />
      <path
         sodipodi:nodetypes="cacaccc"
         inkscape:connector-curvature="0"
         id="rect5487-5"
         d="m 73.125034,559.48802 c 0,0 9.20788,5.57714 14.34142,5.57714 5.13359,0 14.341456,-5.57714 14.341456,-5.57714 0,0 9.20788,5.57714 14.34145,5.57714 5.13354,0 14.34141,-5.57714 14.34141,-5.57714 0,0 -13.26944,37.44809 -28.68286,50.37266 C 86.727984,597.26752 73.125034,559.48802 73.125034,559.48802 Z"
         style="opacity:1;fill:#6d6d6d;fill-opacity:1;fill-rule:nonzero;stroke:#000000;stroke-width:0.39999998;stroke-linecap:butt;stroke-miterlimit:4;stroke-dasharray:none;stroke-dashoffset:0;stroke-opacity:1" />
      <path
         style="opacity:1;fill:#878787;fill-opacity:1;fill-rule:nonzero;stroke:#000000;stroke-width:0.39999998;stroke-linecap:butt;stroke-miterlimit:4;stroke-dasharray:none;stroke-dashoffset:0;stroke-opacity:1"
         d="m 76.516946,562.47172 c 0,0 8.118996,4.91645 12.645466,4.91645 4.526513,0 12.645498,-4.91645 12.645498,-4.91645 0,0 8.119,4.91645 12.64549,4.91645 4.52647,0 12.64546,-4.91645 12.64546,-4.91645 0,0 -11.70026,33.01179 -25.29095,44.40523 C 88.51127,595.77566 76.516946,562.47172 76.516946,562.47172 Z"
         id="path7689"
         inkscape:connector-curvature="0"
         sodipodi:nodetypes="cacaccc" />
      <path
         sodipodi:nodetypes="ccccccccc"
         inkscape:connector-curvature="0"
         id="path7691"
         d="m 74.381137,564.12054 c 0,0 0.09277,0.24879 0.10742,0.28906 0.67997,0.32751 1.3914,0.64999 2.13086,0.96289 -1.32335,-0.70595 -2.23828,-1.25195 -2.23828,-1.25195 z m 51.207033,-0.17857 c 0,0 -0.6116,0.63092 -2.65011,1.65401 -3.45758,8.87259 -10.6107,29.7322 -21.20762,39.95269 0,0 1.5305,-1.68601 2.0679,-1.23734 12.2514,-12.2863 21.78983,-40.36936 21.78983,-40.36936 z"
         style="opacity:0.53600003;fill:#ffffff;fill-opacity:1;fill-rule:nonzero;stroke:none;stroke-width:0.39999998;stroke-linecap:butt;stroke-miterlimit:4;stroke-dasharray:none;stroke-dashoffset:0;stroke-opacity:1" />
    </g>
  </g>
</svg>
